<?xml version="1.0" standalone="no"?>
<!DOCTYPE svg PUBLIC "-//W3C//DTD SVG 20010904//EN"
 "http://www.w3.org/TR/2001/REC-SVG-20010904/DTD/svg10.dtd">
<svg version="1.0" xmlns="http://www.w3.org/2000/svg"
 width="512.000000pt" height="512.000000pt" viewBox="0 0 512.000000 512.000000"
 preserveAspectRatio="xMidYMid meet">
<metadata>
Created by potrace 1.14, written by Peter Selinger 2001-2017
</metadata>
<g transform="translate(0.000000,512.000000) scale(0.100000,-0.100000)"
fill="#000000" stroke="none">
<path d="M2485 4793 c-18 -5 -340 -136 -410 -167 -16 -8 -151 -64 -300 -126
-148 -62 -283 -118 -300 -126 -16 -7 -97 -41 -180 -75 -82 -34 -168 -69 -190
-79 -22 -10 -80 -34 -130 -55 -134 -56 -164 -73 -211 -120 -65 -66 -93 -143
-109 -300 -4 -33 -9 -71 -11 -85 -25 -149 -24 -687 1 -890 18 -144 49 -336 65
-405 10 -45 21 -92 24 -105 39 -201 228 -673 330 -823 14 -21 26 -40 26 -43 0
-3 26 -43 57 -87 270 -389 583 -659 1005 -866 230 -113 294 -133 413 -134 94
0 106 3 200 40 213 85 444 211 600 325 445 327 770 783 954 1339 59 179 118
426 136 569 1 14 8 61 13 105 42 312 45 757 7 1025 -2 14 -6 50 -10 80 -16
133 -62 228 -141 289 -23 18 -89 52 -146 76 -57 23 -267 111 -468 195 -201 84
-520 218 -710 297 -325 136 -349 145 -420 148 -41 2 -84 1 -95 -2z m437 -427
c189 -79 438 -183 553 -230 116 -48 219 -91 230 -96 11 -6 116 -50 234 -99
118 -50 218 -96 222 -103 5 -7 9 -20 10 -28 0 -8 2 -24 5 -35 19 -94 36 -341
37 -524 0 -141 -10 -387 -18 -429 -1 -9 -6 -44 -9 -77 -4 -33 -9 -71 -11 -85
-2 -14 -6 -41 -9 -60 -3 -19 -12 -71 -21 -115 -9 -44 -18 -91 -21 -105 -23
-114 -82 -300 -147 -460 -215 -534 -573 -929 -1081 -1195 -56 -29 -130 -65
-166 -79 -36 -15 -72 -31 -81 -35 -9 -5 -36 -12 -61 -16 -39 -6 -60 -1 -139
30 -440 175 -802 462 -1065 845 -162 236 -305 574 -379 895 -21 89 -52 265
-60 330 -3 28 -7 66 -10 85 -41 321 -16 1016 38 1066 6 7 91 44 187 84 96 39
189 77 205 85 17 7 71 30 120 50 50 21 108 45 130 55 148 67 933 389 947 390
9 0 171 -65 360 -144z"/>
<path d="M2521 4369 c-13 -5 -38 -15 -55 -23 -53 -23 -145 -62 -301 -126 -82
-34 -163 -68 -180 -76 -16 -7 -194 -81 -395 -164 -201 -83 -383 -159 -405
-169 -22 -10 -57 -24 -77 -32 -21 -7 -38 -18 -39 -24 0 -5 -2 -19 -4 -30 -35
-186 -42 -781 -11 -942 2 -11 7 -46 10 -79 4 -32 8 -66 11 -74 2 -8 6 -33 10
-55 8 -63 35 -182 62 -280 183 -672 567 -1168 1133 -1462 130 -67 271 -124
295 -119 37 8 149 57 258 113 530 271 906 722 1101 1320 60 184 109 404 131
593 4 30 9 66 11 80 16 103 22 479 10 655 -9 134 -26 279 -34 286 -4 4 -126
57 -272 117 -146 61 -476 199 -734 306 -257 108 -475 196 -485 195 -9 0 -27
-5 -40 -10z m174 -724 c202 -52 362 -214 409 -413 8 -36 15 -121 15 -209 2
-128 4 -149 19 -157 37 -21 111 -106 130 -150 32 -72 35 -118 35 -491 -1 -329
-2 -353 -21 -404 -41 -107 -112 -177 -217 -217 -46 -18 -82 -19 -495 -19 -245
1 -458 4 -474 8 -103 23 -207 114 -248 217 -22 53 -22 67 -23 445 l0 390 32
65 c35 72 49 90 107 137 l40 32 2 154 c3 203 28 293 112 407 72 96 189 173
311 205 68 18 197 18 266 0z"/>
<path d="M2427 3519 c-151 -51 -260 -174 -291 -327 -6 -31 -11 -105 -11 -165
l0 -107 438 -3 438 -2 -2 130 c-1 148 -17 214 -69 295 -55 86 -158 162 -252
187 -60 16 -194 12 -251 -8z"/>
<path d="M2105 2787 c-86 -34 -138 -93 -155 -173 -5 -28 -8 -198 -7 -394 2
-331 3 -347 24 -385 25 -47 64 -85 113 -111 32 -17 68 -19 470 -20 468 -1 479
0 546 51 18 14 45 50 60 80 l27 56 0 337 c0 185 -3 357 -7 382 -9 60 -51 118
-111 155 l-48 30 -441 2 c-322 1 -449 -1 -471 -10z m570 -245 c121 -85 113
-278 -16 -338 l-35 -16 -1 -105 c-2 -117 -13 -143 -63 -143 -44 0 -55 23 -57
119 -1 47 -2 96 -2 108 -1 12 -9 24 -21 28 -31 10 -77 53 -95 87 -72 144 36
306 195 293 39 -4 67 -13 95 -33z"/>
<path d="M2523 2448 c-30 -15 -47 -60 -36 -95 13 -38 65 -65 103 -52 54 19 69
102 26 138 -20 17 -69 22 -93 9z"/>
</g>
</svg>
